<svg xmlns="http://www.w3.org/2000/svg" width="197.058" height="49.484" viewBox="0 0 197.058 49.484"><defs><style>.a{fill:#fff;}.b{fill:#0fce33;}</style></defs><g transform="translate(-1008.38 -339.92)"><path class="a" d="M1073.388,441.389h-13.843l-2.11-.989-1.736-2.854h19.213a6.874,6.874,0,0,0,1.972-.333c1.071-.332.476,3.945-.865,4.06C1075.324,441.338,1074.442,441.389,1073.388,441.389Z" transform="translate(-33.987 -69.867)"/><path class="a" d="M1031.82,483.093h6.728V479.25h-2.885l-2.161,1.361Z" transform="translate(-16.836 -100.073)"/><path class="a" d="M1082.333,469.3v-5.412l-.795-2.395-3.048-1.448v5.413l.981,2.423Z" transform="translate(-50.356 -86.276)"/><path class="a" d="M1052.588,339.92H1031.82l1.764,3.685,2.079.158h16.925l1.922-2.015Z" transform="translate(-16.836 0)"/><path class="a" d="M1113.853,371.1a10.228,10.228,0,0,0,7.306-9.819v-5.731a15.646,15.646,0,0,0-15.629-15.626v3.843a11.8,11.8,0,0,1,11.786,11.783v5.731a6.393,6.393,0,0,1-2.764,5.274Z" transform="translate(-69.778)"/><path class="a" d="M1035.663,346.178v-2.415l-3.843-3.843v43.1l3.843-3.843v-33Z" transform="translate(-16.836 0)"/><path class="a" d="M1071.925,479.25h-2.575v3.843h6.418Z" transform="translate(-43.792 -100.073)"/><path class="b" d="M1021.712,501.9h-9.489l-2.192,1.552-1.651,2.293h17.179l-1.443-2.4Z" transform="translate(0 -116.342)"/><path class="b" d="M1012.223,365.973h2.761V362.13h-6.6l1.857,2.66Z" transform="translate(0 -15.952)"/><path class="b" d="M1008.38,362.13v43.227l3.843-3.846V365.973Z" transform="translate(0 -15.952)"/><path class="b" d="M1071.407,382.5V372.374a10.256,10.256,0,0,0-10.242-10.245h-15.7v3.843h15.7a6.407,6.407,0,0,1,6.4,6.4V383.63a3.554,3.554,0,0,0,2.234.3A3.03,3.03,0,0,0,1071.407,382.5Z" transform="translate(-26.633 -15.952)"/><path class="b" d="M1095.13,432.681c0-1.409-3.849-.473-3.849,1.127a5.16,5.16,0,0,1-1.524,3.843,6.4,6.4,0,0,1-4.869,2.254h-6.4l3.843,3.843h2.555a10.247,10.247,0,0,0,9.416-6.2c.042-.1.085-.2.127-.31A12.188,12.188,0,0,0,1095.13,432.681Z" transform="translate(-50.356 -66.13)"/><path class="b" d="M1055.7,453.781v2.539l3.846,3.846V442.283l-3.846-3.843v15.341Z" transform="translate(-33.987 -70.762)"/><path class="a" d="M1328.522,404.8V393.383c0-1.691-.747-2.882-2.694-2.882a4.8,4.8,0,0,0-3.744,2.1v12.2h-4.79V393.383c0-1.691-.75-2.882-2.7-2.882a4.868,4.868,0,0,0-3.745,2.133V404.8H1306.1v-18.08h4.761v2.358a7.919,7.919,0,0,1,5.917-2.817c2.657,0,4.342,1.234,5.015,3.294a7.661,7.661,0,0,1,6.2-3.294c3.333,0,5.317,1.758,5.317,5.466v13.062Z" transform="translate(-220.263 -32.684)"/><path class="a" d="M1502.5,385.938l-4.79-6.962-2.172,2.322v4.64h-4.753V360l4.753,1.206v14.7l6.861-8.052h5.841l-7.162,8.2,7.376,9.881Z" transform="translate(-352.909 -13.822)"/><path class="a" d="M1555.61,395.77a9.2,9.2,0,0,1,9.36-9.47c5.39,0,9.058,4.043,9.058,9.957v1.048h-13.439a4.876,4.876,0,0,0,5.2,4.192,7.574,7.574,0,0,0,4.288-1.35l2.1,3.071c-1.8,1.645-4.1,2.06-6.909,2.06C1559.766,405.279,1555.61,401.571,1555.61,395.77Zm9.36-5.689a4.347,4.347,0,0,0-4.454,4h8.909A4.186,4.186,0,0,0,1564.97,390.081Z" transform="translate(-399.473 -32.712)"/><path class="a" d="M1631.21,404.828v-18.08h4.753v2.471a7.775,7.775,0,0,1,5.765-2.919v4.64a6.411,6.411,0,0,0-1.31-.113,6.065,6.065,0,0,0-4.454,2.06v11.941Z" transform="translate(-453.773 -32.712)"/><path class="a" d="M1674.12,402.467l2.06-3.33a10.352,10.352,0,0,0,6.252,2.471c2.057,0,3.031-.826,3.031-1.947,0-2.995-10.743-.564-10.743-7.675,0-3.032,2.657-5.689,7.41-5.689a11.552,11.552,0,0,1,7.3,2.471l-1.907,3.257a7.631,7.631,0,0,0-5.353-2.1c-1.725,0-2.846.786-2.846,1.795,0,2.7,10.707.451,10.707,7.748,0,3.3-2.817,5.8-7.824,5.8A12.167,12.167,0,0,1,1674.12,402.467Z" transform="translate(-484.593 -32.709)"/><path class="a" d="M1232.953,402.506v8.765l-4.753,1.834V386.748h4.753v2.285a6.988,6.988,0,0,1,5.579-2.733c4.64,0,8.01,3.446,8.01,9.473s-3.381,9.509-8.01,9.509A6.9,6.9,0,0,1,1232.953,402.506Zm8.647-6.737c0-3.1-1.834-5.241-4.567-5.241a5.322,5.322,0,0,0-4.08,2.06v6.4a5.413,5.413,0,0,0,4.08,2.057C1239.766,401.047,1241.6,398.914,1241.6,395.77Z" transform="translate(-164.312 -32.712)"/><path class="a" d="M1429.127,404.764v-1.871a7.5,7.5,0,0,1-5.728,2.322c-2.883,0-6.289-1.947-6.289-5.99,0-4.226,3.406-5.841,6.289-5.841a7.438,7.438,0,0,1,5.728,2.209v-2.434c0-1.834-1.572-3.032-3.97-3.032a7.609,7.609,0,0,0-5.277,2.136l-1.8-3.184a11.861,11.861,0,0,1,7.889-2.843c4.116,0,7.889,1.645,7.889,6.849v11.679Zm0-4.776v-1.361a1.163,1.163,0,0,0-.364-.845,5.126,5.126,0,0,0-3.457-1.169c-1.871,0-3.871.817-3.871,2.575,0,1.691,2,2.818,3.871,2.818a5.1,5.1,0,0,0,3.471-1.183A1.127,1.127,0,0,0,1429.127,399.989Z" transform="translate(-299.996 -32.665)"/></g></svg>